<?xml version="1.0" encoding="utf-8"?>
<!-- Generator: Adobe Illustrator 23.0.3, SVG Export Plug-In . SVG Version: 6.00 Build 0)  -->
<svg version="1.1" xmlns="http://www.w3.org/2000/svg" xmlns:xlink="http://www.w3.org/1999/xlink" x="0px" y="0px"
	 viewBox="0 0 255.5 255.5" style="enable-background:new 0 0 255.5 255.5;" xml:space="preserve">
<g id="playBtn" style="display:none;">
	<g style="display:inline;">
		<g>
			<linearGradient id="SVGID_1_" gradientUnits="userSpaceOnUse" x1="37.4603" y1="218.0444" x2="218.0446" y2="37.46">
				<stop  offset="0.129" style="stop-color:#DE0E86"/>
				<stop  offset="0.5108" style="stop-color:#784BA0"/>
				<stop  offset="0.5831" style="stop-color:#645BAA"/>
				<stop  offset="0.7143" style="stop-color:#4572B9"/>
				<stop  offset="0.8257" style="stop-color:#3281C2"/>
				<stop  offset="0.9032" style="stop-color:#2B86C5"/>
			</linearGradient>
			<path style="fill:url(#SVGID_1_);" d="M127.75,255.5C57.31,255.5,0,198.19,0,127.75C0,57.31,57.31,0,127.75,0
				C198.2,0,255.5,57.31,255.5,127.75C255.5,198.19,198.2,255.5,127.75,255.5z M127.75,13.28c-63.12,0-114.48,51.35-114.48,114.48
				c0,63.12,51.35,114.48,114.48,114.48s114.48-51.35,114.48-114.48C242.23,64.63,190.88,13.28,127.75,13.28z"/>
			<linearGradient id="SVGID_2_" gradientUnits="userSpaceOnUse" x1="78.6895" y1="167.1706" x2="157.5163" y2="88.3439">
				<stop  offset="0.129" style="stop-color:#DE0E86"/>
				<stop  offset="0.5108" style="stop-color:#784BA0"/>
				<stop  offset="0.5831" style="stop-color:#645BAA"/>
				<stop  offset="0.7143" style="stop-color:#4572B9"/>
				<stop  offset="0.8257" style="stop-color:#3281C2"/>
				<stop  offset="0.9032" style="stop-color:#2B86C5"/>
			</linearGradient>
			<path style="fill:url(#SVGID_2_);" d="M98.35,70.33v114.84c0,3.4,4.11,5.39,7.1,3.44l87.9-57.41c2.56-1.67,2.56-5.2,0-6.88
				l-87.9-57.43C102.46,64.94,98.35,66.93,98.35,70.33z"/>
		</g>
	</g>
</g>
<g id="playBtnWhite" style="display:none;">
	<g style="display:inline;">
		<g>
			<path style="fill:#FFFFFF;" d="M127.75,255.5C57.31,255.5,0,198.19,0,127.75C0,57.31,57.31,0,127.75,0
				C198.2,0,255.5,57.31,255.5,127.75C255.5,198.19,198.2,255.5,127.75,255.5z M127.75,13.28c-63.12,0-114.48,51.35-114.48,114.48
				c0,63.12,51.35,114.48,114.48,114.48s114.48-51.35,114.48-114.48C242.23,64.63,190.88,13.28,127.75,13.28z"/>
			<path style="fill:#FFFFFF;" d="M98.35,70.33v114.84c0,3.4,4.11,5.39,7.1,3.44l87.9-57.41c2.56-1.67,2.56-5.2,0-6.88l-87.9-57.43
				C102.46,64.94,98.35,66.93,98.35,70.33z"/>
		</g>
	</g>
</g>
<g id="backwardBtn" style="display:none;">
	<g style="display:inline;">
		
			<linearGradient id="SVGID_3_" gradientUnits="userSpaceOnUse" x1="-2018.2871" y1="218.0444" x2="-2198.8716" y2="37.46" gradientTransform="matrix(-1 0 0 1 -1980.8269 0)">
			<stop  offset="0.129" style="stop-color:#DE0E86"/>
			<stop  offset="0.5108" style="stop-color:#784BA0"/>
			<stop  offset="0.5831" style="stop-color:#645BAA"/>
			<stop  offset="0.7143" style="stop-color:#4572B9"/>
			<stop  offset="0.8257" style="stop-color:#3281C2"/>
			<stop  offset="0.9032" style="stop-color:#2B86C5"/>
		</linearGradient>
		<path style="fill:url(#SVGID_3_);" d="M127.75,255.5c70.44,0,127.75-57.31,127.75-127.75C255.5,57.31,198.2,0,127.75,0
			C57.31,0,0,57.31,0,127.75C0,198.19,57.31,255.5,127.75,255.5z M127.75,13.28c63.12,0,114.48,51.35,114.48,114.48
			c0,63.12-51.35,114.48-114.48,114.48c-63.12,0-114.48-51.35-114.48-114.48C13.28,64.63,64.63,13.28,127.75,13.28z"/>
		<g>
			
				<linearGradient id="SVGID_4_" gradientUnits="userSpaceOnUse" x1="-2132.604" y1="156.809" x2="-2195.3298" y2="94.0832" gradientTransform="matrix(-1 0 0 1 -1980.8269 0)">
				<stop  offset="0.129" style="stop-color:#DE0E86"/>
				<stop  offset="0.5108" style="stop-color:#784BA0"/>
				<stop  offset="0.5831" style="stop-color:#645BAA"/>
				<stop  offset="0.7143" style="stop-color:#4572B9"/>
				<stop  offset="0.8257" style="stop-color:#3281C2"/>
				<stop  offset="0.9032" style="stop-color:#2B86C5"/>
			</linearGradient>
			<path style="fill:url(#SVGID_4_);" d="M198.85,79.76v91.37c0,2.71-3.27,4.29-5.65,2.74l-69.94-45.68c-2.04-1.33-2.04-4.14,0-5.47
				l69.94-45.69C195.58,75.47,198.85,77.05,198.85,79.76z"/>
			
				<linearGradient id="SVGID_5_" gradientUnits="userSpaceOnUse" x1="-2050.7891" y1="156.809" x2="-2113.5149" y2="94.0832" gradientTransform="matrix(-1 0 0 1 -1980.8269 0)">
				<stop  offset="0.129" style="stop-color:#DE0E86"/>
				<stop  offset="0.5108" style="stop-color:#784BA0"/>
				<stop  offset="0.5831" style="stop-color:#645BAA"/>
				<stop  offset="0.7143" style="stop-color:#4572B9"/>
				<stop  offset="0.8257" style="stop-color:#3281C2"/>
				<stop  offset="0.9032" style="stop-color:#2B86C5"/>
			</linearGradient>
			<path style="fill:url(#SVGID_5_);" d="M117.04,79.76v91.37c0,2.71-3.27,4.29-5.65,2.74l-69.94-45.68c-2.04-1.33-2.04-4.14,0-5.47
				l69.94-45.69C113.77,75.47,117.04,77.05,117.04,79.76z"/>
		</g>
	</g>
</g>
<g id="backwardBtnWhite" style="display:none;">
	<g style="display:inline;">
		<path style="fill:#FFFFFF;" d="M127.75,255.5c70.44,0,127.75-57.31,127.75-127.75C255.5,57.31,198.2,0,127.75,0
			C57.31,0,0,57.31,0,127.75C0,198.19,57.31,255.5,127.75,255.5z M127.75,13.28c63.12,0,114.48,51.35,114.48,114.48
			c0,63.12-51.35,114.48-114.48,114.48c-63.12,0-114.48-51.35-114.48-114.48C13.28,64.63,64.63,13.28,127.75,13.28z"/>
		<g>
			<path style="fill:#FFFFFF;" d="M198.85,79.76v91.37c0,2.71-3.27,4.29-5.65,2.74l-69.94-45.68c-2.04-1.33-2.04-4.14,0-5.47
				l69.94-45.69C195.58,75.47,198.85,77.05,198.85,79.76z"/>
			<path style="fill:#FFFFFF;" d="M117.04,79.76v91.37c0,2.71-3.27,4.29-5.65,2.74l-69.94-45.68c-2.04-1.33-2.04-4.14,0-5.47
				l69.94-45.69C113.77,75.47,117.04,77.05,117.04,79.76z"/>
		</g>
	</g>
</g>
<g id="forwardBtn" style="display:none;">
	<g style="display:inline;">
		<linearGradient id="SVGID_6_" gradientUnits="userSpaceOnUse" x1="37.4602" y1="218.0444" x2="218.0446" y2="37.46">
			<stop  offset="0.129" style="stop-color:#DE0E86"/>
			<stop  offset="0.5108" style="stop-color:#784BA0"/>
			<stop  offset="0.5831" style="stop-color:#645BAA"/>
			<stop  offset="0.7143" style="stop-color:#4572B9"/>
			<stop  offset="0.8257" style="stop-color:#3281C2"/>
			<stop  offset="0.9032" style="stop-color:#2B86C5"/>
		</linearGradient>
		<path style="fill:url(#SVGID_6_);" d="M127.75,255.5C57.31,255.5,0,198.19,0,127.75C0,57.31,57.31,0,127.75,0
			C198.2,0,255.5,57.31,255.5,127.75C255.5,198.19,198.2,255.5,127.75,255.5z M127.75,13.28c-63.12,0-114.48,51.35-114.48,114.48
			c0,63.12,51.35,114.48,114.48,114.48c63.12,0,114.48-51.35,114.48-114.48C242.23,64.63,190.87,13.28,127.75,13.28z"/>
		<g>
			<linearGradient id="SVGID_7_" gradientUnits="userSpaceOnUse" x1="41.0059" y1="156.8051" x2="103.7239" y2="94.0871">
				<stop  offset="0.129" style="stop-color:#DE0E86"/>
				<stop  offset="0.5108" style="stop-color:#784BA0"/>
				<stop  offset="0.5831" style="stop-color:#645BAA"/>
				<stop  offset="0.7143" style="stop-color:#4572B9"/>
				<stop  offset="0.8257" style="stop-color:#3281C2"/>
				<stop  offset="0.9032" style="stop-color:#2B86C5"/>
			</linearGradient>
			<path style="fill:url(#SVGID_7_);" d="M56.65,79.76v91.37c0,2.71,3.27,4.29,5.65,2.74l69.94-45.68c2.04-1.33,2.04-4.14,0-5.47
				L62.3,77.02C59.92,75.47,56.65,77.05,56.65,79.76z"/>
			<linearGradient id="SVGID_8_" gradientUnits="userSpaceOnUse" x1="122.8207" y1="156.8051" x2="185.5387" y2="94.0871">
				<stop  offset="0.129" style="stop-color:#DE0E86"/>
				<stop  offset="0.5108" style="stop-color:#784BA0"/>
				<stop  offset="0.5831" style="stop-color:#645BAA"/>
				<stop  offset="0.7143" style="stop-color:#4572B9"/>
				<stop  offset="0.8257" style="stop-color:#3281C2"/>
				<stop  offset="0.9032" style="stop-color:#2B86C5"/>
			</linearGradient>
			<path style="fill:url(#SVGID_8_);" d="M138.46,79.76v91.37c0,2.71,3.27,4.29,5.65,2.74l69.94-45.68c2.04-1.33,2.04-4.14,0-5.47
				l-69.94-45.69C141.74,75.47,138.46,77.05,138.46,79.76z"/>
		</g>
	</g>
</g>
<g id="forwardBtnWhite" style="display:none;">
	<g style="display:inline;">
		<path style="fill:#FFFFFF;" d="M127.75,255.5C57.31,255.5,0,198.19,0,127.75C0,57.31,57.31,0,127.75,0
			C198.2,0,255.5,57.31,255.5,127.75C255.5,198.19,198.2,255.5,127.75,255.5z M127.75,13.28c-63.12,0-114.48,51.35-114.48,114.48
			c0,63.12,51.35,114.48,114.48,114.48c63.12,0,114.48-51.35,114.48-114.48C242.23,64.63,190.87,13.28,127.75,13.28z"/>
		<g>
			<path style="fill:#FFFFFF;" d="M56.65,79.76v91.37c0,2.71,3.27,4.29,5.65,2.74l69.94-45.68c2.04-1.33,2.04-4.14,0-5.47
				L62.3,77.02C59.92,75.47,56.65,77.05,56.65,79.76z"/>
			<path style="fill:#FFFFFF;" d="M138.46,79.76v91.37c0,2.71,3.27,4.29,5.65,2.74l69.94-45.68c2.04-1.33,2.04-4.14,0-5.47
				l-69.94-45.69C141.74,75.47,138.46,77.05,138.46,79.76z"/>
		</g>
	</g>
</g>
<g id="volHighBtn" style="display:none;">
	<g style="display:inline;">
		<linearGradient id="SVGID_9_" gradientUnits="userSpaceOnUse" x1="37.46" y1="218.0446" x2="218.0448" y2="37.4599">
			<stop  offset="0.129" style="stop-color:#DE0E86"/>
			<stop  offset="0.5108" style="stop-color:#784BA0"/>
			<stop  offset="0.5831" style="stop-color:#645BAA"/>
			<stop  offset="0.7143" style="stop-color:#4572B9"/>
			<stop  offset="0.8257" style="stop-color:#3281C2"/>
			<stop  offset="0.9032" style="stop-color:#2B86C5"/>
		</linearGradient>
		<path style="fill:url(#SVGID_9_);" d="M127.75,255.5C57.31,255.5,0,198.2,0,127.75C0,57.31,57.31,0,127.75,0
			C198.2,0,255.5,57.31,255.5,127.75C255.5,198.2,198.2,255.5,127.75,255.5z M127.75,13.28c-63.12,0-114.48,51.35-114.48,114.48
			c0,63.12,51.35,114.48,114.48,114.48c63.12,0,114.48-51.35,114.48-114.48C242.23,64.63,190.88,13.28,127.75,13.28z"/>
		<g id="XMLID_5_">
			<linearGradient id="XMLID_19_" gradientUnits="userSpaceOnUse" x1="64.0109" y1="176.5345" x2="158.6912" y2="81.8541">
				<stop  offset="0.129" style="stop-color:#DE0E86"/>
				<stop  offset="0.5108" style="stop-color:#784BA0"/>
				<stop  offset="0.5831" style="stop-color:#645BAA"/>
				<stop  offset="0.7143" style="stop-color:#4572B9"/>
				<stop  offset="0.8257" style="stop-color:#3281C2"/>
				<stop  offset="0.9032" style="stop-color:#2B86C5"/>
			</linearGradient>
			<path id="XMLID_10_" style="fill:url(#XMLID_19_);" d="M133.18,62.52l-64.93,40.15c-0.89,0.55-1.93,0.85-2.98,0.85H47.58
				c-3.13,0-5.66,2.53-5.66,5.66v42.93c0,3.13,2.53,5.66,5.66,5.66h19.16c0.94,0,1.87,0.24,2.7,0.68l64.02,34.71
				c3.77,2.04,8.36-0.69,8.36-4.98V67.33C141.82,62.9,136.95,60.19,133.18,62.52z"/>
			<g id="XMLID_6_">
				<linearGradient id="XMLID_20_" gradientUnits="userSpaceOnUse" x1="156.6482" y1="141.9873" x2="187.2146" y2="111.4209">
					<stop  offset="0.129" style="stop-color:#DE0E86"/>
					<stop  offset="0.5108" style="stop-color:#784BA0"/>
					<stop  offset="0.5831" style="stop-color:#645BAA"/>
					<stop  offset="0.7143" style="stop-color:#4572B9"/>
					<stop  offset="0.8257" style="stop-color:#3281C2"/>
					<stop  offset="0.9032" style="stop-color:#2B86C5"/>
				</linearGradient>
				<path id="XMLID_9_" style="fill:url(#XMLID_20_);" d="M173.41,156.8c-1.75,0.07-3.2-0.82-3.81-2.18
					c-0.65-1.46-0.37-3.09,0.69-4.23c1.15-1.22,2.35-2.4,3.4-3.7c2.74-3.37,4.6-7.2,5.67-11.41c0.9-3.54,1.19-7.14,0.75-10.77
					c-0.97-8.15-4.62-14.87-10.9-20.17c-0.5-0.42-1.04-0.8-1.47-1.28c-1.31-1.46-1.25-3.67,0.09-5.08c1.34-1.42,3.53-1.58,5.08-0.38
					c5.94,4.6,10.21,10.42,12.74,17.5c1.49,4.16,2.21,8.46,2.18,12.88c-0.03,6.65-1.7,12.86-4.97,18.65
					c-1.96,3.47-4.42,6.54-7.36,9.23C174.86,156.46,174.06,156.75,173.41,156.8z"/>
				<linearGradient id="XMLID_21_" gradientUnits="userSpaceOnUse" x1="145.2823" y1="137.8884" x2="166.0833" y2="117.0874">
					<stop  offset="0.129" style="stop-color:#DE0E86"/>
					<stop  offset="0.5108" style="stop-color:#784BA0"/>
					<stop  offset="0.5831" style="stop-color:#645BAA"/>
					<stop  offset="0.7143" style="stop-color:#4572B9"/>
					<stop  offset="0.8257" style="stop-color:#3281C2"/>
					<stop  offset="0.9032" style="stop-color:#2B86C5"/>
				</linearGradient>
				<path id="XMLID_8_" style="fill:url(#XMLID_21_);" d="M156.69,147.97c-1.19,0.05-2.18-0.56-2.59-1.48
					c-0.44-0.99-0.25-2.1,0.47-2.88c0.78-0.83,1.6-1.63,2.32-2.52c1.86-2.3,3.13-4.9,3.86-7.77c0.61-2.41,0.81-4.86,0.51-7.33
					c-0.66-5.55-3.15-10.12-7.41-13.72c-0.34-0.29-0.71-0.55-1-0.87c-0.89-0.99-0.85-2.5,0.06-3.46c0.91-0.96,2.4-1.08,3.46-0.26
					c4.04,3.13,6.95,7.09,8.67,11.91c1.01,2.83,1.5,5.76,1.49,8.77c-0.02,4.52-1.16,8.75-3.38,12.69c-1.33,2.36-3.01,4.45-5.01,6.28
					C157.68,147.74,157.13,147.94,156.69,147.97z"/>
				<linearGradient id="XMLID_22_" gradientUnits="userSpaceOnUse" x1="170.3459" y1="147.7981" x2="212.6954" y2="105.4487">
					<stop  offset="0.129" style="stop-color:#DE0E86"/>
					<stop  offset="0.5108" style="stop-color:#784BA0"/>
					<stop  offset="0.5831" style="stop-color:#645BAA"/>
					<stop  offset="0.7143" style="stop-color:#4572B9"/>
					<stop  offset="0.8257" style="stop-color:#3281C2"/>
					<stop  offset="0.9032" style="stop-color:#2B86C5"/>
				</linearGradient>
				<path id="XMLID_7_" style="fill:url(#XMLID_22_);" d="M193.57,168.32c-2.42,0.09-4.43-1.14-5.27-3.01
					c-0.91-2.02-0.52-4.28,0.96-5.86c1.59-1.69,3.25-3.32,4.71-5.12c3.8-4.67,6.38-9.98,7.86-15.81c1.25-4.91,1.64-9.89,1.04-14.92
					c-1.35-11.3-6.4-20.6-15.1-27.94c-0.69-0.58-1.44-1.11-2.04-1.78c-1.81-2.02-1.73-5.08,0.13-7.04c1.86-1.96,4.89-2.19,7.04-0.53
					c8.23,6.37,14.14,14.44,17.65,24.25c2.06,5.76,3.06,11.72,3.02,17.85c-0.05,9.21-2.36,17.82-6.88,25.83
					c-2.71,4.8-6.13,9.06-10.2,12.78C195.58,167.85,194.47,168.26,193.57,168.32z"/>
			</g>
		</g>
	</g>
</g>
<g id="volHighBtnWhite">
	<g>
		<path style="fill:#FFFFFF;" d="M127.75,255.5C57.31,255.5,0,198.2,0,127.75C0,57.31,57.31,0,127.75,0
			C198.2,0,255.5,57.31,255.5,127.75C255.5,198.2,198.2,255.5,127.75,255.5z M127.75,13.28c-63.12,0-114.48,51.35-114.48,114.48
			c0,63.12,51.35,114.48,114.48,114.48c63.12,0,114.48-51.35,114.48-114.48C242.23,64.63,190.88,13.28,127.75,13.28z"/>
		<g id="XMLID_1_">
			<path id="XMLID_17_" style="fill:#FFFFFF;" d="M133.18,62.52l-64.93,40.15c-0.89,0.55-1.93,0.85-2.98,0.85H47.58
				c-3.13,0-5.66,2.53-5.66,5.66v42.93c0,3.13,2.53,5.66,5.66,5.66h19.16c0.94,0,1.87,0.24,2.7,0.68l64.02,34.71
				c3.77,2.04,8.36-0.69,8.36-4.98V67.33C141.82,62.9,136.95,60.19,133.18,62.52z"/>
			<g id="XMLID_2_">
				<path id="XMLID_13_" style="fill:#FFFFFF;" d="M173.41,156.8c-1.75,0.07-3.2-0.82-3.81-2.18c-0.65-1.46-0.37-3.09,0.69-4.23
					c1.15-1.22,2.35-2.4,3.4-3.7c2.74-3.37,4.6-7.2,5.67-11.41c0.9-3.54,1.19-7.14,0.75-10.77c-0.97-8.15-4.62-14.87-10.9-20.17
					c-0.5-0.42-1.04-0.8-1.47-1.28c-1.31-1.46-1.25-3.67,0.09-5.08c1.34-1.42,3.53-1.58,5.08-0.38c5.94,4.6,10.21,10.42,12.74,17.5
					c1.49,4.16,2.21,8.46,2.18,12.88c-0.03,6.65-1.7,12.86-4.97,18.65c-1.96,3.47-4.42,6.54-7.36,9.23
					C174.86,156.46,174.06,156.75,173.41,156.8z"/>
				<path id="XMLID_4_" style="fill:#FFFFFF;" d="M156.69,147.97c-1.19,0.05-2.18-0.56-2.59-1.48c-0.44-0.99-0.25-2.1,0.47-2.88
					c0.78-0.83,1.6-1.63,2.32-2.52c1.86-2.3,3.13-4.9,3.86-7.77c0.61-2.41,0.81-4.86,0.51-7.33c-0.66-5.55-3.15-10.12-7.41-13.72
					c-0.34-0.29-0.71-0.55-1-0.87c-0.89-0.99-0.85-2.5,0.06-3.46c0.91-0.96,2.4-1.08,3.46-0.26c4.04,3.13,6.95,7.09,8.67,11.91
					c1.01,2.83,1.5,5.76,1.49,8.77c-0.02,4.52-1.16,8.75-3.38,12.69c-1.33,2.36-3.01,4.45-5.01,6.28
					C157.68,147.74,157.13,147.94,156.69,147.97z"/>
				<path id="XMLID_3_" style="fill:#FFFFFF;" d="M193.57,168.32c-2.42,0.09-4.43-1.14-5.27-3.01c-0.91-2.02-0.52-4.28,0.96-5.86
					c1.59-1.69,3.25-3.32,4.71-5.12c3.8-4.67,6.38-9.98,7.86-15.81c1.25-4.91,1.64-9.89,1.04-14.92c-1.35-11.3-6.4-20.6-15.1-27.94
					c-0.69-0.58-1.44-1.11-2.04-1.78c-1.81-2.02-1.73-5.08,0.13-7.04c1.86-1.96,4.89-2.19,7.04-0.53
					c8.23,6.37,14.14,14.44,17.65,24.25c2.06,5.76,3.06,11.72,3.02,17.85c-0.05,9.21-2.36,17.82-6.88,25.83
					c-2.71,4.8-6.13,9.06-10.2,12.78C195.58,167.85,194.47,168.26,193.57,168.32z"/>
			</g>
		</g>
	</g>
</g>
<g id="volLowBtn" style="display:none;">
	<g style="display:inline;">
		<linearGradient id="SVGID_10_" gradientUnits="userSpaceOnUse" x1="37.46" y1="218.0446" x2="218.0448" y2="37.4599">
			<stop  offset="0.129" style="stop-color:#DE0E86"/>
			<stop  offset="0.5108" style="stop-color:#784BA0"/>
			<stop  offset="0.5831" style="stop-color:#645BAA"/>
			<stop  offset="0.7143" style="stop-color:#4572B9"/>
			<stop  offset="0.8257" style="stop-color:#3281C2"/>
			<stop  offset="0.9032" style="stop-color:#2B86C5"/>
		</linearGradient>
		<path style="fill:url(#SVGID_10_);" d="M127.75,255.5C57.31,255.5,0,198.2,0,127.75C0,57.31,57.31,0,127.75,0
			C198.2,0,255.5,57.31,255.5,127.75C255.5,198.2,198.2,255.5,127.75,255.5z M127.75,13.28c-63.12,0-114.48,51.35-114.48,114.48
			c0,63.12,51.35,114.48,114.48,114.48c63.12,0,114.48-51.35,114.48-114.48C242.23,64.63,190.88,13.28,127.75,13.28z"/>
		<g id="XMLID_11_">
			<linearGradient id="XMLID_23_" gradientUnits="userSpaceOnUse" x1="64.0109" y1="176.5345" x2="158.6912" y2="81.8541">
				<stop  offset="0.129" style="stop-color:#DE0E86"/>
				<stop  offset="0.5108" style="stop-color:#784BA0"/>
				<stop  offset="0.5831" style="stop-color:#645BAA"/>
				<stop  offset="0.7143" style="stop-color:#4572B9"/>
				<stop  offset="0.8257" style="stop-color:#3281C2"/>
				<stop  offset="0.9032" style="stop-color:#2B86C5"/>
			</linearGradient>
			<path id="XMLID_16_" style="fill:url(#XMLID_23_);" d="M133.18,62.52l-64.93,40.15c-0.89,0.55-1.93,0.85-2.98,0.85H47.58
				c-3.13,0-5.66,2.53-5.66,5.66v42.93c0,3.13,2.53,5.66,5.66,5.66h19.16c0.94,0,1.87,0.24,2.7,0.68l64.02,34.71
				c3.77,2.04,8.36-0.69,8.36-4.98V67.33C141.82,62.9,136.95,60.19,133.18,62.52z"/>
			<g id="XMLID_12_">
				<linearGradient id="XMLID_24_" gradientUnits="userSpaceOnUse" x1="156.6482" y1="141.9873" x2="187.2146" y2="111.4209">
					<stop  offset="0.129" style="stop-color:#DE0E86"/>
					<stop  offset="0.5108" style="stop-color:#784BA0"/>
					<stop  offset="0.5831" style="stop-color:#645BAA"/>
					<stop  offset="0.7143" style="stop-color:#4572B9"/>
					<stop  offset="0.8257" style="stop-color:#3281C2"/>
					<stop  offset="0.9032" style="stop-color:#2B86C5"/>
				</linearGradient>
				<path id="XMLID_15_" style="fill:url(#XMLID_24_);" d="M173.41,156.8c-1.75,0.07-3.2-0.82-3.81-2.18
					c-0.65-1.46-0.37-3.09,0.69-4.23c1.15-1.22,2.35-2.4,3.4-3.7c2.74-3.37,4.6-7.2,5.67-11.41c0.9-3.54,1.19-7.14,0.75-10.77
					c-0.97-8.15-4.62-14.87-10.9-20.17c-0.5-0.42-1.04-0.8-1.47-1.28c-1.31-1.46-1.25-3.67,0.09-5.08c1.34-1.42,3.53-1.58,5.08-0.38
					c5.94,4.6,10.21,10.42,12.74,17.5c1.49,4.16,2.21,8.46,2.18,12.88c-0.03,6.65-1.7,12.86-4.97,18.65
					c-1.96,3.47-4.42,6.54-7.36,9.23C174.86,156.46,174.06,156.75,173.41,156.8z"/>
				<linearGradient id="XMLID_25_" gradientUnits="userSpaceOnUse" x1="145.2823" y1="137.8884" x2="166.0833" y2="117.0874">
					<stop  offset="0.129" style="stop-color:#DE0E86"/>
					<stop  offset="0.5108" style="stop-color:#784BA0"/>
					<stop  offset="0.5831" style="stop-color:#645BAA"/>
					<stop  offset="0.7143" style="stop-color:#4572B9"/>
					<stop  offset="0.8257" style="stop-color:#3281C2"/>
					<stop  offset="0.9032" style="stop-color:#2B86C5"/>
				</linearGradient>
				<path id="XMLID_14_" style="fill:url(#XMLID_25_);" d="M156.69,147.97c-1.19,0.05-2.18-0.56-2.59-1.48
					c-0.44-0.99-0.25-2.1,0.47-2.88c0.78-0.83,1.6-1.63,2.32-2.52c1.86-2.3,3.13-4.9,3.86-7.77c0.61-2.41,0.81-4.86,0.51-7.33
					c-0.66-5.55-3.15-10.12-7.41-13.72c-0.34-0.29-0.71-0.55-1-0.87c-0.89-0.99-0.85-2.5,0.06-3.46c0.91-0.96,2.4-1.08,3.46-0.26
					c4.04,3.13,6.95,7.09,8.67,11.91c1.01,2.83,1.5,5.76,1.49,8.77c-0.02,4.52-1.16,8.75-3.38,12.69c-1.33,2.36-3.01,4.45-5.01,6.28
					C157.68,147.74,157.13,147.94,156.69,147.97z"/>
			</g>
		</g>
	</g>
</g>
<g id="payuseBtn" style="display:none;">
	<g style="display:inline;">
		<g>
			<linearGradient id="SVGID_11_" gradientUnits="userSpaceOnUse" x1="37.4602" y1="218.0444" x2="218.0445" y2="37.46">
				<stop  offset="0.129" style="stop-color:#DE0E86"/>
				<stop  offset="0.5108" style="stop-color:#784BA0"/>
				<stop  offset="0.5831" style="stop-color:#645BAA"/>
				<stop  offset="0.7143" style="stop-color:#4572B9"/>
				<stop  offset="0.8257" style="stop-color:#3281C2"/>
				<stop  offset="0.9032" style="stop-color:#2B86C5"/>
			</linearGradient>
			<path style="fill:url(#SVGID_11_);" d="M127.75,255.5C57.31,255.5,0,198.19,0,127.75S57.31,0,127.75,0
				C198.2,0,255.5,57.31,255.5,127.75S198.2,255.5,127.75,255.5z M127.75,13.28c-63.12,0-114.48,51.35-114.48,114.48
				s51.35,114.48,114.48,114.48s114.48-51.35,114.48-114.48S190.87,13.28,127.75,13.28z"/>
			<g>
				<linearGradient id="SVGID_12_" gradientUnits="userSpaceOnUse" x1="68.6201" y1="157.7968" x2="128.709" y2="97.7078">
					<stop  offset="0.129" style="stop-color:#DE0E86"/>
					<stop  offset="0.5108" style="stop-color:#784BA0"/>
					<stop  offset="0.5831" style="stop-color:#645BAA"/>
					<stop  offset="0.7143" style="stop-color:#4572B9"/>
					<stop  offset="0.8257" style="stop-color:#3281C2"/>
					<stop  offset="0.9032" style="stop-color:#2B86C5"/>
				</linearGradient>
				<path style="fill:url(#SVGID_12_);" d="M103.35,76.21h-9.37c-5.15,0-9.37,4.22-9.37,9.37v84.33c0,5.15,4.22,9.37,9.37,9.37h9.37
					c5.15,0,9.37-4.22,9.37-9.37V85.58C112.72,80.43,108.5,76.21,103.35,76.21z"/>
				<linearGradient id="SVGID_13_" gradientUnits="userSpaceOnUse" x1="126.7957" y1="157.7968" x2="186.8846" y2="97.7079">
					<stop  offset="0.129" style="stop-color:#DE0E86"/>
					<stop  offset="0.5108" style="stop-color:#784BA0"/>
					<stop  offset="0.5831" style="stop-color:#645BAA"/>
					<stop  offset="0.7143" style="stop-color:#4572B9"/>
					<stop  offset="0.8257" style="stop-color:#3281C2"/>
					<stop  offset="0.9032" style="stop-color:#2B86C5"/>
				</linearGradient>
				<path style="fill:url(#SVGID_13_);" d="M161.52,76.21h-9.37c-5.15,0-9.37,4.22-9.37,9.37v84.33c0,5.15,4.22,9.37,9.37,9.37h9.37
					c5.15,0,9.37-4.22,9.37-9.37V85.58C170.9,80.43,166.68,76.21,161.52,76.21z"/>
			</g>
		</g>
	</g>
</g>
</svg>
